<?xml version="1.0" encoding="utf-8"?>
<!-- Generator: Adobe Illustrator 19.0.0, SVG Export Plug-In . SVG Version: 6.00 Build 0)  -->
<svg version="1.1" id="Capa_1" xmlns="http://www.w3.org/2000/svg" xmlns:xlink="http://www.w3.org/1999/xlink" x="0px" y="0px"
	 viewBox="-112 413.6 283.2 184" style="enable-background:new -112 413.6 283.2 184;" xml:space="preserve">
<style type="text/css">
	.st0{fill:#3B5998;}
	.st1{fill:#A3A3A3;}
	.st2{fill:#CA2026;}
</style>
<g>
	<g>
		<g>
			<path class="st0" d="M-68.1,513.3c-23.2,0-42.1,18.9-42.1,42.1c0,23.2,18.9,42.1,42.1,42.1c23.2,0,42.1-18.9,42.1-42.1
				C-26,532.2-44.9,513.3-68.1,513.3z M-57.6,556.8h-6.8c0,10.9,0,24.4,0,24.4h-10.1c0,0,0-13.3,0-24.4h-4.8v-8.6h4.8v-5.6
				c0-4,1.9-10.2,10.2-10.2l7.5,0v8.4c0,0-4.6,0-5.5,0s-2.1,0.4-2.1,2.3v5.1h7.7L-57.6,556.8z"/>
		</g>
	</g>
	<g>
	</g>
	<g>
	</g>
	<g>
	</g>
	<g>
	</g>
	<g>
	</g>
	<g>
	</g>
	<g>
	</g>
	<g>
	</g>
	<g>
	</g>
	<g>
	</g>
	<g>
	</g>
	<g>
	</g>
	<g>
	</g>
	<g>
	</g>
	<g>
	</g>
</g>
<g>
	<g>
		<g>
			<path class="st1" d="M-68.9,413.7c-23.2,0-42.1,18.9-42.1,42.1c0,23.2,18.9,42.1,42.1,42.1c23.2,0,42.1-18.9,42.1-42.1
				C-26.9,432.5-45.7,413.7-68.9,413.7z M-58.5,457.2h-6.8c0,10.9,0,24.4,0,24.4h-10.1c0,0,0-13.3,0-24.4h-4.8v-8.6h4.8V443
				c0-4,1.9-10.2,10.2-10.2l7.5,0v8.4c0,0-4.6,0-5.5,0c-0.9,0-2.1,0.4-2.1,2.3v5.1h7.7L-58.5,457.2z"/>
		</g>
	</g>
	<g>
	</g>
	<g>
	</g>
	<g>
	</g>
	<g>
	</g>
	<g>
	</g>
	<g>
	</g>
	<g>
	</g>
	<g>
	</g>
	<g>
	</g>
	<g>
	</g>
	<g>
	</g>
	<g>
	</g>
	<g>
	</g>
	<g>
	</g>
	<g>
	</g>
</g>
<g>
	<g>
		<g>
			<path class="st2" d="M30.1,513.3c-23.2,0-42.1,18.9-42.1,42.1c0,16.7,9.9,31.8,25.2,38.5l2.1,0.9l-0.1-2.2
				c-0.1-3.5,0.1-6.5,0.7-9c0.8-3.3,5.2-22.2,5.2-22.2l0.1-0.5l-0.2-0.5c0,0-1.2-2.4-1.2-5.8c0-5.1,2.8-9.1,6.4-9.1
				c3.8,0,4.1,3.6,4.1,4.7c0,2.2-0.9,5.2-1.9,8.3c-0.6,1.9-1.2,3.8-1.6,5.8c-0.6,2.4-0.1,4.7,1.4,6.6c1.5,1.9,3.8,3,6.4,3
				c8.2,0,14.3-9.9,14.3-23c0-10.3-7.2-17-18.3-17c-12.2,0-21.4,9-21.4,20.9c0,3.6,1,6.5,3,8.9c0.3,0.4,0.4,0.5,0.4,0.5
				c0,0,0,0.1-0.1,0.5l-0.1,0.4c-0.2,0.9-0.6,2.2-0.7,2.8c0,0.1,0,0.1,0,0.1c0,0-0.1,0-0.1,0c-4.7-1.9-7.5-7.1-7.5-14.2
				c0-16.6,16.2-24,27.7-24c15.2,0,24.3,11.1,24.3,21.9c0,15.6-8.4,26.5-20.5,26.5c-4,0-7.6-2.2-8.7-4.3l-1.7-3.3l-0.9,3.6
				c0,0.1-2.4,9.4-2.9,11.1c-0.7,2.5-2,5.3-3.9,8.3l-1,1.6l1.8,0.5c3.9,1.1,7.9,1.7,11.9,1.7c23.2,0,42.1-18.9,42.1-42.1
				C72.1,532.2,53.3,513.3,30.1,513.3z"/>
		</g>
	</g>
	<g>
	</g>
	<g>
	</g>
	<g>
	</g>
	<g>
	</g>
	<g>
	</g>
	<g>
	</g>
	<g>
	</g>
	<g>
	</g>
	<g>
	</g>
	<g>
	</g>
	<g>
	</g>
	<g>
	</g>
	<g>
	</g>
	<g>
	</g>
	<g>
	</g>
</g>
<g>
	<g>
		<g>
			<path class="st1" d="M30.1,413.6c-23.2,0-42.1,18.9-42.1,42.1c0,16.7,9.9,31.8,25.2,38.5l2.1,0.9l-0.1-2.2
				c-0.1-3.5,0.1-6.5,0.7-9c0.8-3.3,5.2-22.2,5.2-22.2l0.1-0.5l-0.2-0.5c0,0-1.2-2.4-1.2-5.8c0-5.1,2.8-9.1,6.4-9.1
				c3.8,0,4.1,3.6,4.1,4.7c0,2.2-0.9,5.2-1.9,8.3c-0.6,1.9-1.2,3.8-1.6,5.8c-0.6,2.4-0.1,4.7,1.4,6.6c1.5,1.9,3.8,3,6.4,3
				c8.2,0,14.3-9.9,14.3-23c0-10.3-7.2-17-18.3-17c-12.2,0-21.4,9-21.4,20.9c0,3.6,1,6.5,3,8.9c0.3,0.4,0.4,0.5,0.4,0.5
				c0,0,0,0.1-0.1,0.5l-0.1,0.4c-0.2,0.9-0.6,2.2-0.7,2.8c0,0.1,0,0.1,0,0.1c0,0-0.1,0-0.1,0c-4.7-1.9-7.5-7.1-7.5-14.2
				c0-16.6,16.2-24,27.7-24c15.2,0,24.3,11.1,24.3,21.9c0,15.6-8.4,26.5-20.5,26.5c-4,0-7.6-2.2-8.7-4.3l-1.7-3.3l-0.9,3.6
				c0,0.1-2.4,9.4-2.9,11.1c-0.7,2.5-2,5.3-3.9,8.3l-1,1.6l1.8,0.5c3.9,1.1,7.9,1.7,11.9,1.7c23.2,0,42.1-18.9,42.1-42.1
				C72.1,432.5,53.3,413.6,30.1,413.6z"/>
		</g>
	</g>
	<g>
	</g>
	<g>
	</g>
	<g>
	</g>
	<g>
	</g>
	<g>
	</g>
	<g>
	</g>
	<g>
	</g>
	<g>
	</g>
	<g>
	</g>
	<g>
	</g>
	<g>
	</g>
	<g>
	</g>
	<g>
	</g>
	<g>
	</g>
	<g>
	</g>
</g>
<g>
	<g>
		<g>
			<g>
				<path class="st0" d="M129.3,564.1c4.6,0,8.4-3.8,8.4-8.4c0-1.8-0.6-3.5-1.6-4.9c-1.5-2.1-4-3.5-6.8-3.5c-2.8,0-5.3,1.4-6.8,3.5
					c-1,1.4-1.6,3.1-1.6,4.9C120.9,560.4,124.6,564.1,129.3,564.1z"/>
				<polygon class="st0" points="147.6,545.5 147.6,538.4 147.6,537.4 146.5,537.4 139.5,537.4 139.5,545.5 				"/>
				<path class="st0" d="M129.3,513.8c-23.1,0-41.9,18.8-41.9,41.9c0,23.1,18.8,41.9,41.9,41.9c23.1,0,41.9-18.8,41.9-41.9
					C171.2,532.6,152.4,513.8,129.3,513.8z M153.1,550.8v19.5c0,5.1-4.1,9.2-9.2,9.2h-29.3c-5.1,0-9.2-4.1-9.2-9.2v-19.5v-9.7
					c0-5.1,4.1-9.2,9.2-9.2h29.3c5.1,0,9.2,4.1,9.2,9.2V550.8z"/>
				<path class="st0" d="M142.3,555.7c0,7.2-5.9,13-13,13c-7.2,0-13-5.9-13-13c0-1.7,0.3-3.4,1-4.9h-7.1v19.5c0,2.5,2,4.6,4.6,4.6
					h29.3c2.5,0,4.6-2,4.6-4.6v-19.5h-7.1C142,552.3,142.3,554,142.3,555.7z"/>
			</g>
		</g>
	</g>
	<g>
	</g>
	<g>
	</g>
	<g>
	</g>
	<g>
	</g>
	<g>
	</g>
	<g>
	</g>
	<g>
	</g>
	<g>
	</g>
	<g>
	</g>
	<g>
	</g>
	<g>
	</g>
	<g>
	</g>
	<g>
	</g>
	<g>
	</g>
	<g>
	</g>
</g>
<g>
	<g>
		<g>
			<g>
				<path class="st1" d="M129.3,464.1c4.6,0,8.4-3.8,8.4-8.4c0-1.8-0.6-3.5-1.6-4.9c-1.5-2.1-4-3.5-6.8-3.5c-2.8,0-5.3,1.4-6.8,3.5
					c-1,1.4-1.6,3.1-1.6,4.9C120.9,460.3,124.6,464.1,129.3,464.1z"/>
				<polygon class="st1" points="147.6,445.4 147.6,438.4 147.6,437.4 146.5,437.4 139.5,437.4 139.5,445.5 				"/>
				<path class="st1" d="M129.3,413.8c-23.1,0-41.9,18.8-41.9,41.9c0,23.1,18.8,41.9,41.9,41.9c23.1,0,41.9-18.8,41.9-41.9
					C171.2,432.6,152.4,413.8,129.3,413.8z M153.1,450.8v19.5c0,5.1-4.1,9.2-9.2,9.2h-29.3c-5.1,0-9.2-4.1-9.2-9.2v-19.5v-9.7
					c0-5.1,4.1-9.2,9.2-9.2h29.3c5.1,0,9.2,4.1,9.2,9.2V450.8z"/>
				<path class="st1" d="M142.3,455.7c0,7.2-5.9,13-13,13c-7.2,0-13-5.9-13-13c0-1.7,0.3-3.4,1-4.9h-7.1v19.5c0,2.5,2,4.6,4.6,4.6
					h29.3c2.5,0,4.6-2,4.6-4.6v-19.5h-7.1C142,452.3,142.3,454,142.3,455.7z"/>
			</g>
		</g>
	</g>
	<g>
	</g>
	<g>
	</g>
	<g>
	</g>
	<g>
	</g>
	<g>
	</g>
	<g>
	</g>
	<g>
	</g>
	<g>
	</g>
	<g>
	</g>
	<g>
	</g>
	<g>
	</g>
	<g>
	</g>
	<g>
	</g>
	<g>
	</g>
	<g>
	</g>
</g>
</svg>
